<?xml version="1.0" encoding="UTF-8" standalone="no"?>
<svg
   xmlns="http://www.w3.org/2000/svg"
   width="109.60767mm"
   height="26.38232mm"
   viewBox="0 0 109.60766 26.382321"
   version="1.1">
  <g
     style="display:inline"
     transform="translate(-49.4927,-156.3811)">
    <path
       style="display:inline;fill:#79264f;fill-opacity:1;stroke:#79264f;stroke-width:0.17443217px;stroke-linecap:butt;stroke-linejoin:miter;stroke-opacity:1"
       d="m 73.616387,175.33957 -3.5162,-0.9824 c -1.25935,2.84237 -5.76715,2.06938 -5.89529,-1.16364 h 10.03212 c 1.09828,-12.03841 -16.964424,-10.43191 -14.057315,1.15212 0.480101,1.27075 1.245955,2.35322 2.347855,3.21426 4.14482,3.31203 9.64009,0.57777 11.08883,-2.22034 m -9.48911,-4.70566 c -0.0473,-3.70993 5.73598,-3.73719 5.84348,0 z"/>
    <path
       style="display:inline;fill:#79264f;fill-opacity:1;stroke:#79264f;stroke-width:0.17443217px;stroke-linecap:butt;stroke-linejoin:miter;stroke-opacity:1"
       d="m 56.249687,174.6049 c -1.491311,0.4683 -2.172549,-0.32615 -2.201623,-1.1649 -0.04773,-1.37753 -0.283011,-9.25391 -0.331072,-15.00221 0.127358,-2.01224 -3.519229,-3.16885 -4.1316,-0.0176 l -0.0053,14.62527 c -0.02565,3.61576 2.771035,8.20388 8.626464,5.4278 2.36358,-1.31638 0.228932,-5.17418 -1.956763,-3.86834 z"/>
    <path
       style="display:inline;fill:#79264f;fill-opacity:1;stroke:#79264f;stroke-width:0.17470686;stroke-linecap:butt;stroke-linejoin:miter;stroke-miterlimit:4;stroke-dasharray:none;stroke-opacity:1"
       d="m 100.25951,168.38465 c 4.4342,-0.11258 3.72753,6.99614 0,7.08427 -3.767363,0.0891 -4.201623,-6.97758 0,-7.08427 z m 0,-3.51658 c -10.230773,0.24009 -9.401894,13.98868 0,14.09154 9.94085,0.10874 9.72363,-14.31972 0,-14.09154 z"/>
    <path
       style="display:inline;fill:#79264f;fill-opacity:1;stroke:#79264f;stroke-width:0.17443217px;stroke-linecap:butt;stroke-linejoin:miter;stroke-opacity:1"
       d="m 109.5157,166.96394 v 11.98067 h 4.137 v -8.02598 c 0.79632,-2.73368 4.92766,-3.87331 4.83474,0.15456 v 7.87142 h 4.13682 c 0.0248,-3.74084 0.0288,-7.59651 0.003,-10.79221 -0.0115,-1.42483 -1.09824,-2.41351 -1.98074,-2.806 -2.17929,-0.9692 -5.8282,-0.4989 -7.40761,2.05551 0.055,-2.44201 -3.01472,-3.41079 -3.72326,-0.43797 z"/>
    <path
       style="display:inline;fill:#79264f;fill-opacity:1;stroke:#79264f;stroke-width:0.17443217px;stroke-linecap:butt;stroke-linejoin:miter;stroke-opacity:1"
       d="m 133.74322,169.66862 4.03357,-1.21509 c -4.76001,-6.89205 -13.55936,-3.04841 -13.65157,3.43858 -0.0808,5.68472 8.26629,10.87682 13.67742,3.46491 l -4.03358,-1.24143 c -2.30417,2.96577 -5.45659,0.67885 -5.40358,-2.22348 0.27668,-3.59971 3.40117,-4.54758 5.37774,-2.22349 z"/>
    <path
       style="display:inline;fill:#fc297a;fill-opacity:0.98039216;stroke:#fc297a;stroke-width:0.09025805;stroke-linecap:butt;stroke-linejoin:miter;stroke-miterlimit:4;stroke-dasharray:none;stroke-opacity:0.98039216"
       d="m 142.24858,164.21705 c -4.97306,1.79455 -2.31349,8.39443 2.30967,6.90376 4.88819,-1.57612 2.41686,-8.60935 -2.30967,-6.90376 z m 0.65683,1.69264 c 2.15401,-0.78197 2.973,2.81667 1.16119,3.47082 -1.83117,0.66115 -3.20222,-2.72987 -1.16119,-3.47082 z"/>
    <path
       style="display:inline;fill:#fc297a;fill-opacity:0.98039216;stroke:#fc297a;stroke-width:0.09011614px;stroke-linecap:butt;stroke-linejoin:miter;stroke-opacity:0.98039216"
       d="m 147.32404,163.75588 1.59861,4.77833 c 0.62058,1.2368 2.35858,0.62489 2.02951,-0.67897 l -1.59861,-4.77835 c -0.8021,-1.42891 -2.36737,-0.47596 -2.02951,0.67899 z"/>
    <path
       style="display:inline;fill:#fc297a;fill-opacity:0.98039216;stroke:#fc297a;stroke-width:0.09025805;stroke-linecap:butt;stroke-linejoin:miter;stroke-miterlimit:4;stroke-dasharray:none;stroke-opacity:0.98039216"
       d="m 144.21875,172.29568 c -5.1887,-1.01445 -6.29648,6.01439 -1.56408,7.10986 5.0037,1.15828 6.49558,-6.1457 1.56408,-7.10986 z m -0.30575,1.78969 c 2.24981,0.43538 1.10422,3.94372 -0.78634,3.57444 -1.91074,-0.37323 -1.34549,-3.98698 0.78634,-3.57444 z"
       id="path919-4-3-5-4"/>
    <path
       style="display:inline;fill:#fc297a;fill-opacity:0.98039216;stroke:#fc297a;stroke-width:0.09011614px;stroke-linecap:butt;stroke-linejoin:miter;stroke-opacity:0.98039216"
       d="m 148.80748,174.55762 -1.08256,4.92099 c -0.10275,1.37994 1.70277,1.74754 2.0901,0.4598 l 1.08256,-4.921 c 0.0457,-1.63801 -1.7868,-1.62429 -2.0901,-0.45979 z"/>
    <path
       style="display:inline;fill:#fc297a;fill-opacity:0.98039216;stroke:#fc297a;stroke-width:0.09011614px;stroke-linecap:butt;stroke-linejoin:miter;stroke-opacity:0.98039216"
       d="m 150.65753,162.5055 1.96376,5.86974 2.02685,-0.6781 -1.31553,-3.9322 c -0.058,-1.46984 1.77936,-2.70536 2.39403,-0.71674 l 1.29021,3.85649 2.02677,-0.67807 c -0.601,-1.83683 -1.23105,-3.7265 -1.76732,-5.28802 -0.23916,-0.69619 -0.93367,-1.00245 -1.43037,-1.05009 -1.22656,-0.11764 -2.93721,0.71087 -3.29233,2.22124 -0.37332,-1.20543 -2.03608,-1.17692 -1.89594,0.3957 z"/>
    <path
       style="display:inline;fill:#fc297a;fill-opacity:0.98039216;stroke:#fc297a;stroke-width:0.09011614px;stroke-linecap:butt;stroke-linejoin:miter;stroke-opacity:0.98039216"
       d="m 152.30857,175.20981 -1.32983,6.04498 2.08738,0.4592 0.89086,-4.0496 c 0.70521,-1.29092 2.91621,-1.40737 2.42226,0.61462 l -0.87371,3.97162 2.08729,0.45917 c 0.42772,-1.88473 0.85769,-3.82971 1.19956,-5.44496 0.15236,-0.72018 -0.28623,-1.33967 -0.68794,-1.63565 -0.99201,-0.73092 -2.88531,-0.89864 -3.96576,0.2149 0.29881,-1.22604 -1.14253,-2.05558 -1.82999,-0.63425 z"/>
    <path
       style="display:inline;fill:#79264f;fill-opacity:1;stroke:#79264f;stroke-width:0.17470686;stroke-linecap:butt;stroke-linejoin:miter;stroke-miterlimit:4;stroke-dasharray:none;stroke-opacity:1"
       d="m 76.402968,159.47282 -0.003,19.46977 4.11225,0.002 v -1.77624 c 0.0556,-4.68832 0.01,-7.59499 0.0249,-9.82042 l -0.0011,-7.87509 c -0.0483,-2.52042 -3.89467,-2.70984 -4.132419,0 z m 7.42754,5.60003 c -10.230791,0.24009 -9.401911,13.98868 0,14.09153 9.94084,0.10875 9.72362,-14.31971 0,-14.09153 z m 0,3.51659 c 4.434189,-0.1126 3.727518,6.99613 0,7.08425 -3.767381,0.0891 -4.201631,-6.97758 0,-7.08425 z"
/>
  </g>
</svg>
